<?xml version="1.0" encoding="UTF-8"?>
<svg version="1.1" xmlns="http://www.w3.org/2000/svg" width="500" height="500">
<path d="M0 0 C165 0 330 0 500 0 C500 165 500 330 500 500 C335 500 170 500 0 500 C0 335 0 170 0 0 Z " fill="#000000" transform="translate(0,0)"/>
<path d="M0 0 C13.42992036 9.15772522 20.420638 24.39393112 23.453125 39.91015625 C26.59611985 60.81315345 22.73846859 81.31725313 10.16015625 98.515625 C-1.78722052 112.88179584 -19.05932378 120.25780101 -37.31640625 122.38671875 C-49.95821157 122.84555774 -63.16082697 119.49817744 -74 113 C-73.67 112.01 -73.34 111.02 -73 110 C-70.50595878 108.83167486 -68.07394041 107.8332233 -65.5 106.875 C-39.69742757 96.71747573 -16.66504486 81.76593943 -3 57 C-2.29637732 55.34859534 -1.61370026 53.68688892 -1 52 C-1.61746094 52.83402344 -2.23492187 53.66804688 -2.87109375 54.52734375 C-19.73344684 77.0552594 -40.40169056 88.98979922 -67 97 C-68.22589844 97.38414062 -69.45179688 97.76828125 -70.71484375 98.1640625 C-73.65726458 98.9127879 -75.9889011 99.18249084 -79 99 C-79.58218054 87.84800839 -79.90529161 79.13989917 -72.44921875 70.125 C-64.65259636 62.38023985 -53.09788607 58.32763105 -43.1640625 53.99853516 C-27.35752433 47.10340492 -7.05978612 38.13253534 0 21 C0.70111468 17.48923313 0.83687174 14.49220914 0 11 C-3.54873298 6.82502002 -7.99983898 5.32621191 -13.37109375 4.7421875 C-31.33138415 3.96017195 -47.9719473 14.18579142 -60.8125 25.87890625 C-65.34895761 30.19914781 -69.26124719 34.97543273 -73 40 C-73.33 39.34 -73.66 38.68 -74 38 C-65.09315246 19.75425635 -48.15231564 4.49550308 -29.4453125 -3.02734375 C-18.65637255 -6.67407267 -9.96609071 -5.51573897 0 0 Z " fill="#FBFBFB" transform="translate(289,122)"/>
<path d="M0 0 C4.62 0 9.24 0 14 0 C16.40534482 6.78124909 18.10280273 13.52187814 19.5625 20.5625 C20.93275791 27.07440676 22.33724061 33.55584956 24 40 C26.83094166 28.98949329 29.52687281 17.98358313 31.74316406 6.83081055 C32.89908199 1.10091801 32.89908199 1.10091801 34 0 C36.53049402 -0.07313567 39.03304837 -0.09247527 41.5625 -0.0625 C42.62887695 -0.05573242 42.62887695 -0.05573242 43.71679688 -0.04882812 C45.47790013 -0.03700864 47.23896036 -0.01907263 49 0 C50.28933112 5.03349686 51.57083814 10.06889735 52.84521484 15.10620117 C53.27960514 16.81865775 53.71610821 18.53057987 54.15478516 20.24194336 C54.78587511 22.70548385 55.40927907 25.17086237 56.03125 27.63671875 C56.22811401 28.39836838 56.42497803 29.16001801 56.62780762 29.94474792 C57.56745397 33.70136392 58.2413858 37.12106427 58 41 C58.66 41 59.32 41 60 41 C60.03085693 40.38793701 60.06171387 39.77587402 60.09350586 39.14526367 C60.68022806 30.64051892 62.55523784 22.56370012 64.5625 14.3125 C64.8958825 12.91748486 65.22856947 11.52230331 65.56054688 10.12695312 C66.36445008 6.74895585 67.18244089 3.37483276 68 0 C72.62 0 77.24 0 82 0 C82 5.16167076 81.931066 8.11946414 80.64453125 12.81640625 C80.20898926 14.4413501 80.20898926 14.4413501 79.76464844 16.09912109 C79.45043945 17.24203613 79.13623047 18.38495117 78.8125 19.5625 C76.47474207 28.30363035 74.22340368 37.04396031 72.25 45.875 C72.04963135 46.76993164 71.8492627 47.66486328 71.64282227 48.58691406 C71.09237567 51.05732395 70.5456563 53.52852833 70 56 C69.42192433 58.60541969 68.83791869 61.20926389 68.25 63.8125 C68.02828125 64.80894531 67.8065625 65.80539062 67.578125 66.83203125 C67 69 67 69 66 70 C63.64686445 70.07271741 61.29166332 70.08370868 58.9375 70.0625 C57.00197266 70.04896484 57.00197266 70.04896484 55.02734375 70.03515625 C54.02832031 70.02355469 53.02929688 70.01195312 52 70 C49.3917735 62.71301642 47.5253509 55.31130708 45.78295898 47.77832031 C45.30982343 45.73846033 44.82618474 43.70127621 44.34179688 41.6640625 C44.03582554 40.35431433 43.73046506 39.04442328 43.42578125 37.734375 C43.15161377 36.56100586 42.87744629 35.38763672 42.5949707 34.17871094 C42.06579316 31.3515088 41.87725781 28.86376016 42 26 C41.34 26 40.68 26 40 26 C39.86078125 27.96453125 39.86078125 27.96453125 39.71875 29.96875 C39.02848618 36.86166622 37.50043709 43.56805379 35.98876953 50.31640625 C35.49506689 52.52203883 35.01057614 54.72955223 34.52734375 56.9375 C32.14979953 67.70040093 32.14979953 67.70040093 31 70 C26.71 70 22.42 70 18 70 C14.98181975 61.39818628 12.71794219 52.61878414 10.4296875 43.80273438 C9.82977138 41.4930573 9.22775762 39.18393708 8.625 36.875 C8.42124756 36.09116943 8.21749512 35.30733887 8.00756836 34.49975586 C6.8505867 30.09062169 5.63423805 25.70521878 4.34765625 21.33203125 C4.07163574 20.39053223 3.79561523 19.4490332 3.51123047 18.47900391 C2.97450703 16.66012547 2.43089482 14.8432612 1.87939453 13.02880859 C1.51177002 11.78284912 1.51177002 11.78284912 1.13671875 10.51171875 C0.91717529 9.78428467 0.69763184 9.05685059 0.47143555 8.30737305 C0 6 0 6 0 0 Z " fill="#E6EDEE" transform="translate(201,290)"/>
<path d="M0 0 C3.63378738 4.45116743 7.03614165 9.05851307 10.4375 13.6875 C11.0456958 14.51386963 11.6538916 15.34023926 12.28051758 16.19165039 C17.16479933 22.83873733 22.00607206 29.5163451 26.82397461 36.21166992 C27.32936768 36.91396729 27.83476074 37.61626465 28.35546875 38.33984375 C28.81872559 38.98550293 29.28198242 39.63116211 29.75927734 40.29638672 C30.7656807 41.67826051 31.8091602 43.03307874 32.86328125 44.37890625 C34 46 34 46 34 48 C33.26998779 47.98428955 32.53997559 47.9685791 31.7878418 47.95239258 C28.42114274 47.88932186 25.05456863 47.85078286 21.6875 47.8125 C20.53958984 47.78736328 19.39167969 47.76222656 18.20898438 47.73632812 C7.4351507 47.6447658 -1.58142542 49.80282382 -11.125 54.75 C-11.81094238 55.10143066 -12.49688477 55.45286133 -13.20361328 55.81494141 C-18.63978978 58.67141208 -23.44988605 61.85262683 -28 66 C-28.81855469 66.72703125 -29.63710937 67.4540625 -30.48046875 68.203125 C-42.39867429 79.38207725 -53.04117964 97.03952548 -54.18701172 113.72290039 C-54.26819477 116.7763413 -54.27287922 119.82062395 -54.25 122.875 C-54.25773438 123.89980469 -54.26546875 124.92460937 -54.2734375 125.98046875 C-54.24839639 135.83414665 -52.70911617 144.34328798 -48.625 153.3125 C-48.33367187 153.98861328 -48.04234375 154.66472656 -47.7421875 155.36132812 C-45.94945144 159.39105281 -43.93729811 162.65510325 -41 166 C-41.33 166.66 -41.66 167.32 -42 168 C-55.2334175 155.40235167 -64.77438526 142.35362243 -65.29296875 123.24243164 C-65.5705028 93.1542712 -47.94049524 66.64740938 -31 43 C-30.49742676 42.29552734 -29.99485352 41.59105469 -29.47705078 40.86523438 C-22.63949617 31.29393636 -15.68112342 21.81170238 -8.66870117 12.36791992 C-5.66485333 8.31178266 -2.75467349 4.22966981 0 0 Z " fill="#F9F9F9" transform="translate(248,61)"/>
<path d="M0 0 C16.17 0 32.34 0 49 0 C49 3.96 49 7.92 49 12 C37.78 12 26.56 12 15 12 C15 17.28 15 22.56 15 28 C17.36478516 27.98259766 17.36478516 27.98259766 19.77734375 27.96484375 C21.83072799 27.95546757 23.8841135 27.94636718 25.9375 27.9375 C26.97841797 27.92912109 28.01933594 27.92074219 29.09179688 27.91210938 C30.08115234 27.90888672 31.07050781 27.90566406 32.08984375 27.90234375 C33.46450806 27.89448853 33.46450806 27.89448853 34.86694336 27.88647461 C37 28 37 28 38 29 C38.09851171 30.83115883 38.12972629 32.66619933 38.125 34.5 C38.12886719 36.00046875 38.12886719 36.00046875 38.1328125 37.53125 C38 40 38 40 37 41 C35.29227642 41.08713831 33.58101351 41.10700007 31.87109375 41.09765625 C30.31938477 41.09282227 30.31938477 41.09282227 28.73632812 41.08789062 C27.64771484 41.07951172 26.55910156 41.07113281 25.4375 41.0625 C23.7987793 41.05573242 23.7987793 41.05573242 22.12695312 41.04882812 C19.41794568 41.0369984 16.7089662 41.01906231 14 41 C14 46.61 14 52.22 14 58 C25.55 58 37.1 58 49 58 C49 61.96 49 65.92 49 70 C42.18237576 70.02464247 35.3647772 70.04283244 28.54711914 70.05493164 C26.22582549 70.05997333 23.90453503 70.06680651 21.58325195 70.07543945 C18.25471205 70.08751225 14.92621398 70.09322979 11.59765625 70.09765625 C10.03048607 70.10539818 10.03048607 70.10539818 8.43165588 70.11329651 C7.47073532 70.11337204 6.50981476 70.11344757 5.51977539 70.11352539 C4.66928116 70.115746 3.81878693 70.11796661 2.94252014 70.12025452 C1 70 1 70 0 69 C-0.09425595 66.85256451 -0.11742648 64.70198974 -0.11352539 62.55249023 C-0.11367142 61.87934784 -0.11381744 61.20620544 -0.1139679 60.51266479 C-0.11326878 58.27794216 -0.10547652 56.0433019 -0.09765625 53.80859375 C-0.09579206 52.26302638 -0.09436816 50.71745843 -0.09336853 49.17189026 C-0.0895434 45.09642923 -0.07971317 41.02100363 -0.06866455 36.94555664 C-0.05665566 32.05972272 -0.05204817 27.17387698 -0.04621124 22.28803253 C-0.0365014 14.85866369 -0.01734484 7.42937263 0 0 Z " fill="#E6EDED" transform="translate(36,290)"/>
<path d="M0 0 C6.0249413 3.61496478 10.60596096 8.98756346 12.8359375 15.703125 C14.77246747 24.81971223 13.78902979 33.88506225 9.34375 42.09375 C5.47321785 47.4439033 0.8463048 50.80464703 -5.65625 52.09375 C-13.75319026 53.17577355 -19.90826953 51.71849611 -26.65625 47.09375 C-32.28675752 42.30039228 -34.36808701 36.28887587 -35.01171875 29.15234375 C-35.40211399 20.65863516 -35.2327239 13.00430857 -29.65625 6.09375 C-21.73911636 -1.3921001 -10.45064943 -3.56551569 0 0 Z " fill="#E6EDEE" transform="translate(181.65625,308.90625)"/>
<path d="M0 0 C3.75538766 3.17121624 7.55615056 6.82717796 8.26647949 11.90490723 C8.36308346 14.19758034 8.36343651 16.47118344 8.328125 18.765625 C8.32625183 19.5996283 8.32437866 20.43363159 8.32244873 21.29290771 C8.3157478 23.04785181 8.30187238 24.80278147 8.28125 26.55761719 C8.24994548 29.25469717 8.24026204 31.9511934 8.234375 34.6484375 C8.22521061 36.35417385 8.21483665 38.05990423 8.203125 39.765625 C8.19675018 40.98116058 8.19675018 40.98116058 8.19024658 42.22125244 C8.11719328 47.88280672 8.11719328 47.88280672 7 49 C4.8579034 49.15154969 2.70976538 49.22177745 0.5625 49.25 C-0.61183594 49.27578125 -1.78617187 49.3015625 -2.99609375 49.328125 C-3.98738281 49.21984375 -4.97867188 49.1115625 -6 49 C-6.66 48.01 -7.32 47.02 -8 46 C-9.11375 46.66 -10.2275 47.32 -11.375 48 C-16.94359549 50.75478222 -22.37677606 51.20161065 -28.30859375 49.234375 C-32.09457063 47.48379486 -34.94223429 45.7523963 -37 42 C-38.85606957 36.43179128 -38.91152916 30.96890298 -36.4375 25.625 C-32.67484658 21.5729117 -28.48523924 19.08553758 -23 18 C-20.24029592 17.93073032 -17.50803958 17.9058264 -14.75 17.9375 C-14.00492187 17.94201172 -13.25984375 17.94652344 -12.4921875 17.95117188 C-10.6614236 17.96290754 -8.83070127 17.9808415 -7 18 C-7.59861742 15.64828869 -8.26924352 13.3140622 -9 11 C-12.12942465 9.43528767 -15.61082223 9.30298042 -19 10 C-19.60585938 10.67160156 -20.21171875 11.34320313 -20.8359375 12.03515625 C-23 14 -23 14 -26.234375 14.171875 C-27.39453125 14.03265625 -28.5546875 13.8934375 -29.75 13.75 C-30.92046875 13.62109375 -32.0909375 13.4921875 -33.296875 13.359375 C-34.18890625 13.24078125 -35.0809375 13.1221875 -36 13 C-36.68359375 10.7578125 -36.68359375 10.7578125 -37 8 C-34.30547471 3.01284472 -29.88032406 -0.96648167 -24.43359375 -2.6015625 C-16.01751099 -3.97947653 -7.62568058 -4.0208134 0 0 Z " fill="#E5EBEC" transform="translate(326,311)"/>
<path d="M0 0 C6.29002855 3.89708291 9.92022496 10.22833443 11.9765625 17.18359375 C12.72472218 20.94341314 12.87981046 24.68932529 12.4375 28.5 C11.4375 29.5 11.4375 29.5 8.38647461 29.61352539 C7.03758729 29.61336634 5.68869386 29.60767612 4.33984375 29.59765625 C3.27655602 29.59553383 3.27655602 29.59553383 2.19178772 29.59336853 C-0.08051712 29.58775443 -2.35272475 29.57519963 -4.625 29.5625 C-6.16210796 29.55748681 -7.69921745 29.55292359 -9.23632812 29.54882812 C-13.01175642 29.53778042 -16.78711171 29.52050641 -20.5625 29.5 C-18.89137026 34.17343639 -18.89137026 34.17343639 -15.875 37.9375 C-12.38847869 38.78557275 -9.09441863 39.09434608 -5.5625 38.5 C-3.5444245 37.19418644 -1.54196592 35.86363208 0.4375 34.5 C3.7935679 34.5 5.11622852 35.26327365 7.8125 37.25 C9.4375 39.5 9.4375 39.5 9.6875 41.9375 C7.40536088 46.6158852 2.597181 48.4989161 -1.97265625 50.6171875 C-8.56259582 52.86353191 -15.62732552 52.33528263 -21.9375 49.5 C-27.69777919 46.23090265 -31.15292227 41.85868349 -33.6953125 35.80078125 C-34.77961017 31.67361219 -34.93040661 27.87393869 -34.9375 23.625 C-34.96199219 22.86058594 -34.98648437 22.09617187 -35.01171875 21.30859375 C-35.04566712 14.64339795 -33.21001594 9.50748522 -28.78125 4.4765625 C-28.2140625 4.03054688 -27.646875 3.58453125 -27.0625 3.125 C-26.4953125 2.66351563 -25.928125 2.20203125 -25.34375 1.7265625 C-18.44894804 -3.02117394 -7.71388973 -3.38512443 0 0 Z " fill="#E6EDEE" transform="translate(415.5625,309.5)"/>
<path d="M0 0 C2.05606327 1.21367618 3.66892907 2.46959977 5.38671875 4.125 C5.97066406 4.67929687 6.55460937 5.23359375 7.15625 5.8046875 C10.50099724 9.32959676 12.26692898 12.09382967 12.38671875 17.125 C10.50846984 19.00324891 7.34736599 18.51602397 4.82421875 18.6875 C3.02791016 18.81318359 3.02791016 18.81318359 1.1953125 18.94140625 C0.26847656 19.00199219 -0.65835938 19.06257813 -1.61328125 19.125 C-2.23203125 18.155625 -2.85078125 17.18625 -3.48828125 16.1875 C-5.27006971 13.09664638 -5.27006971 13.09664638 -7.61328125 12.125 C-12.6920705 11.60389029 -12.6920705 11.60389029 -16.98828125 14 C-20.87167201 19.07828023 -20.05453531 24.96240092 -19.61328125 31.125 C-18.79518036 33.89550119 -17.68773398 36.05054727 -15.61328125 38.125 C-13.58057563 38.36320921 -13.58057563 38.36320921 -11.23828125 38.375 C-10.05105469 38.41367187 -10.05105469 38.41367187 -8.83984375 38.453125 C-6.07729473 38.04601251 -5.33288516 37.27701892 -3.61328125 35.125 C-2.95328125 34.135 -2.29328125 33.145 -1.61328125 32.125 C2.67671875 32.455 6.96671875 32.785 11.38671875 33.125 C11.11590602 38.36071274 10.72864715 41.8098104 6.98046875 45.80859375 C0.83705707 50.88293134 -6.14857134 52.51337938 -13.953125 52.3984375 C-20.9421924 51.68003116 -25.90651447 48.53404878 -30.32421875 43.19921875 C-34.20850332 36.94905177 -35.11411551 31.93639403 -35.05078125 24.6875 C-35.07076172 23.87990234 -35.09074219 23.07230469 -35.11132812 22.24023438 C-35.10585257 15.44506792 -33.3316545 10.27515065 -28.8671875 5.1015625 C-28.30902344 4.65554688 -27.75085938 4.20953125 -27.17578125 3.75 C-26.62019531 3.28851563 -26.06460938 2.82703125 -25.4921875 2.3515625 C-18.5076885 -2.20796492 -7.86482006 -2.63336277 0 0 Z " fill="#E6EDEE" transform="translate(127.61328125,308.875)"/>
<path d="M0 0 C4.62 0 9.24 0 14 0 C14 4.29 14 8.58 14 13 C15.629375 12.979375 17.25875 12.95875 18.9375 12.9375 C20.62499341 12.91613932 22.31391034 12.92794489 24 13 C25 14 25 14 25.09765625 16.50390625 C25.06510417 19.3359375 25.03255208 22.16796875 25 25 C21.37 25 17.74 25 14 25 C14.14009116 29.14610213 14.28678753 33.29178241 14.4375 37.4375 C14.47681641 38.62150391 14.51613281 39.80550781 14.55664062 41.02539062 C14.59853516 42.15009766 14.64042969 43.27480469 14.68359375 44.43359375 C14.72025146 45.47572021 14.75690918 46.51784668 14.79467773 47.59155273 C14.73515341 49.9499826 14.73515341 49.9499826 16 51 C17.155 51.165 18.31 51.33 19.5 51.5 C23 52 23 52 24 53 C24.09851171 54.83115883 24.12972629 56.66619933 24.125 58.5 C24.12886719 60.00046875 24.12886719 60.00046875 24.1328125 61.53125 C24 64 24 64 23 65 C20.77454838 65.15327614 18.54304841 65.22203074 16.3125 65.25 C15.09175781 65.27578125 13.87101562 65.3015625 12.61328125 65.328125 C8.62437868 64.96588952 6.33765913 64.19645665 3 62 C-0.19081406 57.85920215 -0.35451429 54.6610293 -0.29296875 49.51171875 C-0.28872391 48.80852005 -0.28447906 48.10532135 -0.28010559 47.3808136 C-0.2634006 45.14930869 -0.22576614 42.91872887 -0.1875 40.6875 C-0.17244248 39.1686329 -0.15875594 37.64975154 -0.14648438 36.13085938 C-0.11352473 32.42027566 -0.06180016 28.71022822 0 25 C-2.31 25 -4.62 25 -7 25 C-7 21.04 -7 17.08 -7 13 C-4.69 13 -2.38 13 0 13 C0 8.71 0 4.42 0 0 Z " fill="#E5ECED" transform="translate(348,295)"/>
<path d="M0 0 C4.29 0 8.58 0 13 0 C13.66 1.32 14.32 2.64 15 4 C15.928125 3.01 15.928125 3.01 16.875 2 C21.19752606 -0.76641668 24.98640045 -0.54129128 30 0 C30.66 0.33 31.32 0.66 32 1 C31.33333333 5.66666667 30.66666667 10.33333333 30 15 C29.25234375 15.02578125 28.5046875 15.0515625 27.734375 15.078125 C26.74953125 15.13484375 25.7646875 15.1915625 24.75 15.25 C23.77546875 15.29640625 22.8009375 15.3428125 21.796875 15.390625 C18.24055502 16.16546567 17.21207396 17.12244886 15 20 C14.35726046 23.47724894 14.35726046 23.47724894 14.390625 27.390625 C14.37408875 28.09523865 14.35755249 28.79985229 14.34051514 29.52581787 C14.29208861 31.76730102 14.27067813 34.00810613 14.25 36.25 C14.22183552 37.77347151 14.19190741 39.29691152 14.16015625 40.8203125 C14.08302054 44.54718508 14.04246097 48.2719271 14 52 C9.38 52 4.76 52 0 52 C0 34.84 0 17.68 0 0 Z " fill="#E7EEEF" transform="translate(437,308)"/>
<path d="M0 0 C6.30987005 5.76902404 11.59344624 12.98935689 12.30078125 21.70703125 C12.53732598 38.12204263 12.53732598 38.12204263 7.41796875 43.734375 C3.42285466 47.39003496 -0.2786783 49.87905237 -5.8125 50.125 C-6.534375 50.08375 -7.25625 50.0425 -8 50 C-5.31158141 47.74754119 -3.35358125 46.11786042 0 45 C1.1231899 43.18712423 1.1231899 43.18712423 2 41 C2.35320312 40.27941406 2.70640625 39.55882812 3.0703125 38.81640625 C3.41835938 38.07261719 3.76640625 37.32882813 4.125 36.5625 C4.47820312 35.82128906 4.83140625 35.08007812 5.1953125 34.31640625 C6.08839173 31.74555196 6.14297313 29.70219207 6 27 C5.79246094 27.65226562 5.58492188 28.30453125 5.37109375 28.9765625 C2.7195077 36.49863506 -0.53189153 40.54254034 -7.5 44.375 C-10.85707499 45.21426875 -13.55069487 45.36956841 -17 45 C-20.38939556 42.86320715 -21.72582557 41.8225233 -23 38 C-23.69384612 34.00250019 -23.85834998 30.522787 -21.82421875 26.9140625 C-17.74423304 21.98691986 -12.7258292 18.42360521 -7.453125 14.859375 C-3.43940456 11.8171283 -1.75448252 9.17729318 -0.8125 4.25 C-0.65394531 3.45078125 -0.49539063 2.6515625 -0.33203125 1.828125 C-0.16767578 0.92320313 -0.16767578 0.92320313 0 0 Z " fill="#F8F8F8" transform="translate(304,58)"/>
<path d="M0 0 C2.75329021 1.79562405 4.52627461 3.05254922 6 6 C6.1509482 8.45290828 6.23128564 10.85858009 6.25 13.3125 C6.27578125 14.62863281 6.3015625 15.94476563 6.328125 17.30078125 C5.89886846 22.14013776 4.3803519 24.6196481 1 28 C-2.05543769 28.56036019 -4.94301486 28.54394753 -8 28 C-11.50782962 24.7552576 -12.85041913 21.83665691 -13.23828125 17.07421875 C-13.48643989 5.75034812 -13.48643989 5.75034812 -9 1 C-5.89951072 -0.55024464 -3.42105782 -0.28992015 0 0 Z " fill="#040404" transform="translate(174,320)"/>
<path d="M0 0 C4.98257853 3.4984062 9.98415332 8.20245995 11.9375 14.0625 C8.25060953 14.23800193 4.56480299 14.3437482 0.875 14.4375 C-0.16333984 14.48777344 -1.20167969 14.53804687 -2.27148438 14.58984375 C-8.63464422 14.71104679 -12.28567971 14.11960852 -16.95092773 9.65478516 C-18.0625 8.0625 -18.0625 8.0625 -18.0625 5.0625 C-16.0825 4.7325 -14.1025 4.4025 -12.0625 4.0625 C-13.7125 3.7325 -15.3625 3.4025 -17.0625 3.0625 C-12.17992364 -2.04201165 -6.61298421 -2.02438292 0 0 Z " fill="#F0F0F0" transform="translate(320.0625,114.9375)"/>
<path d="M0 0 C-1.70974422 1.75408917 -3.35097836 3.26560524 -5.3125 4.75 C-7.55489956 6.62735777 -9.12718676 8.31145605 -10.9375 10.5625 C-13.62455433 13.76497396 -15.98734611 15.57885175 -20 17 C-25.2 17.4 -25.2 17.4 -28 16 C-26.4169423 11.7257442 -23.49431596 9.73468206 -20 7 C-24.95 9.475 -24.95 9.475 -30 12 C-28.74079563 7.48785102 -27.33219533 4.33219533 -24 1 C-15.82698367 -3.55802834 -8.61095478 -2.23246976 0 0 Z " fill="#F1F1F1" transform="translate(349,90)"/>
<path d="M0 0 C8.625 -0.25 8.625 -0.25 12 2 C12.1875 4.4375 12.1875 4.4375 12 7 C12 8.85463477 12.03463746 10.71006788 12.125 12.5625 C12 15 12 15 10 17 C7.6171875 17.1953125 7.6171875 17.1953125 4.875 17.125 C3.26625 17.08375 1.6575 17.0425 0 17 C0 11.39 0 5.78 0 0 Z " fill="#393939" transform="translate(371,387)"/>
<path d="M0 0 C2.69791024 4.04686536 2.53108385 7.25450886 2 12 C0.9375 14.5625 0.9375 14.5625 -1 16 C-4.64942331 16.52134619 -6.90622489 16.81151056 -9.9375 14.5625 C-11.54299182 10.6904315 -11.66486486 7.12518422 -11 3 C-8.11286469 -1.85038732 -5.13544698 -1.42651305 0 0 Z " fill="#494949" transform="translate(413,388)"/>
<path d="M0 0 C8 0 8 0 10.47265625 1.15625 C12.55444417 3.66930345 12.50265967 5.26808047 12.4375 8.5 C12.43621094 9.4590625 12.43492187 10.418125 12.43359375 11.40625 C12 14 12 14 10.765625 15.83203125 C8.47342623 17.34833088 7.03683399 17.3059493 4.3125 17.1875 C2.889375 17.125625 1.46625 17.06375 0 17 C0 11.39 0 5.78 0 0 Z " fill="#414141" transform="translate(242,387)"/>
<path d="M0 0 C1.61648438 0.04060547 1.61648438 0.04060547 3.265625 0.08203125 C4.08546875 0.11683594 4.9053125 0.15164063 5.75 0.1875 C6.04254094 3.11290935 6.26100791 5.3389027 5.75 8.1875 C2.61198766 11.32551234 -0.09065389 12.43038526 -4.4375 12.6875 C-8.25 12.1875 -8.25 12.1875 -10.3125 10.5 C-11.51807437 7.52624989 -11.39880448 6.17439164 -10.25 3.1875 C-6.97301044 -0.03576842 -4.49400756 -0.14654372 0 0 Z " fill="#050505" transform="translate(313.25,337.8125)"/>
<path d="M0 0 C1.423125 -0.061875 2.84625 -0.12375 4.3125 -0.1875 C5.51326172 -0.23970703 5.51326172 -0.23970703 6.73828125 -0.29296875 C9 0 9 0 10.80859375 1.35546875 C12 3 12 3 11.75 5.5 C11.19717158 7.34276141 10.60839041 9.17482878 10 11 C10.88319294 14.15020361 10.88319294 14.15020361 12 17 C11.01 17 10.02 17 9 17 C8.566875 16.030625 8.13375 15.06125 7.6875 14.0625 C6.2985139 10.72268235 6.2985139 10.72268235 3 10 C3 12.31 3 14.62 3 17 C2.01 17 1.02 17 0 17 C0 11.39 0 5.78 0 0 Z " fill="#454545" transform="translate(174,387)"/>
<path d="M0 0 C4.19174654 1.04793663 5.21592961 1.91763635 8 5 C8.6496875 3.7625 8.6496875 3.7625 9.3125 2.5 C9.869375 1.675 10.42625 0.85 11 0 C11.99 0 12.98 0 14 0 C14 5.61 14 11.22 14 17 C13.01 17 12.02 17 11 17 C10.67 14.03 10.34 11.06 10 8 C8.02 8.99 8.02 8.99 6 10 C5.34 9.01 4.68 8.02 4 7 C3.67 10.3 3.34 13.6 3 17 C2.01 17 1.02 17 0 17 C0 11.39 0 5.78 0 0 Z " fill="#474747" transform="translate(349,387)"/>
<path d="M0 0 C3.41846034 0.79199972 4.96879031 2.70171559 6.97265625 5.45703125 C6.97265625 6.77703125 6.97265625 8.09703125 6.97265625 9.45703125 C1.03265625 9.45703125 -4.90734375 9.45703125 -11.02734375 9.45703125 C-9.62474544 2.4440397 -7.57413298 -0.38224596 0 0 Z " fill="#0F1010" transform="translate(406.02734375,319.54296875)"/>
<path d="M0 0 C1.32 0 2.64 0 4 0 C4.83698386 2.45714547 5.66972424 4.91558857 6.5 7.375 C6.73847656 8.07367188 6.97695313 8.77234375 7.22265625 9.4921875 C9 14.7734375 9 14.7734375 9 17 C8.01 17 7.02 17 6 17 C5.67 16.34 5.34 15.68 5 15 C2.67843403 14.59270772 0.3431213 14.25561323 -2 14 C-2 14.99 -2 15.98 -2 17 C-2.99 17 -3.98 17 -5 17 C-3.83348574 11.07136283 -2.24480642 5.61201606 0 0 Z " fill="#4E4E4E" transform="translate(333,387)"/>
<path d="M0 0 C1.423125 -0.061875 2.84625 -0.12375 4.3125 -0.1875 C5.51326172 -0.23970703 5.51326172 -0.23970703 6.73828125 -0.29296875 C9 0 9 0 10.8046875 1.31640625 C12 3 12 3 11.8125 6.125 C11.544375 7.07375 11.27625 8.0225 11 9 C8.29120665 10.35439668 5.99066732 10.06501451 3 10 C3 12.31 3 14.62 3 17 C2.01 17 1.02 17 0 17 C0 11.39 0 5.78 0 0 Z " fill="#474747" transform="translate(134,387)"/>
<path d="M0 0 C1.859375 0.13671875 1.859375 0.13671875 4 1 C5.265625 3.58203125 5.265625 3.58203125 6.25 6.8125 C6.58515625 7.87082031 6.9203125 8.92914063 7.265625 10.01953125 C8 13 8 13 8 17 C7.01 16.67 6.02 16.34 5 16 C5 15.34 5 14.68 5 14 C2.69 14 0.38 14 -2 14 C-2 14.99 -2 15.98 -2 17 C-2.99 17 -3.98 17 -5 17 C-4.46246904 10.81839396 -2.45417612 5.673142 0 0 Z " fill="#4C4C4C" transform="translate(158,387)"/>
<path d="M0 0 C3.96 0 7.92 0 12 0 C12 0.99 12 1.98 12 3 C9.03 3 6.06 3 3 3 C3 4.32 3 5.64 3 7 C4.98 7 6.96 7 9 7 C9 7.99 9 8.98 9 10 C7.02 10 5.04 10 3 10 C3 11.65 3 13.3 3 15 C5.97 15 8.94 15 12 15 C12 15.66 12 16.32 12 17 C8.04 17 4.08 17 0 17 C0 11.39 0 5.78 0 0 Z " fill="#464646" transform="translate(261,387)"/>
<path d="M0 0 C3.96 0 7.92 0 12 0 C12 0.99 12 1.98 12 3 C9.03 3 6.06 3 3 3 C3 4.32 3 5.64 3 7 C4.98 7 6.96 7 9 7 C9 7.99 9 8.98 9 10 C7.02 10 5.04 10 3 10 C3 11.65 3 13.3 3 15 C5.97 15 8.94 15 12 15 C12 15.66 12 16.32 12 17 C8.04 17 4.08 17 0 17 C0 11.39 0 5.78 0 0 Z " fill="#464646" transform="translate(212,387)"/>
<path d="M0 0 C3.0625 0.25 3.0625 0.25 6.0625 2.25 C6.0625 3.57 6.0625 4.89 6.0625 6.25 C5.0725 5.92 4.0825 5.59 3.0625 5.25 C3.0625 4.59 3.0625 3.93 3.0625 3.25 C1.0825 3.25 -0.8975 3.25 -2.9375 3.25 C-2.9375 4.24 -2.9375 5.23 -2.9375 6.25 C-1.82375 6.53875 -0.71 6.8275 0.4375 7.125 C4.0625 8.25 4.0625 8.25 6.0625 10.25 C6.3125 12.75 6.3125 12.75 6.0625 15.25 C4.0625 17.25 4.0625 17.25 0.625 17.5625 C-2.9375 17.25 -2.9375 17.25 -4.875 15.9375 C-5.9375 14.25 -5.9375 14.25 -5.9375 11.25 C-4.9475 11.25 -3.9575 11.25 -2.9375 11.25 C-1.9475 12.735 -1.9475 12.735 -0.9375 14.25 C0.0525 14.25 1.0425 14.25 2.0625 14.25 C2.0625 13.26 2.0625 12.27 2.0625 11.25 C1.093125 10.775625 0.12375 10.30125 -0.875 9.8125 C-3.9375 8.25 -3.9375 8.25 -4.9375 7.25 C-5.125 4.8125 -5.125 4.8125 -4.9375 2.25 C-2.9375 0.25 -2.9375 0.25 0 0 Z " fill="#494949" transform="translate(90.9375,386.75)"/>
<path d="M0 0 C3.63 0 7.26 0 11 0 C11 0.99 11 1.98 11 3 C8.36 3 5.72 3 3 3 C3 4.32 3 5.64 3 7 C4.98 7 6.96 7 9 7 C9 7.99 9 8.98 9 10 C7.02 10 5.04 10 3 10 C3 11.65 3 13.3 3 15 C5.64 15 8.28 15 11 15 C11 15.66 11 16.32 11 17 C7.37 17 3.74 17 0 17 C0 11.39 0 5.78 0 0 Z " fill="#4B4B4B" transform="translate(105,387)"/>
<path d="M0 0 C1.875 1.3125 1.875 1.3125 3 3 C3 3.99 3 4.98 3 6 C2.01 6 1.02 6 0 6 C-0.33 5.34 -0.66 4.68 -1 4 C-2.65 3.67 -4.3 3.34 -6 3 C-5.67 6.63 -5.34 10.26 -5 14 C-3.68 14.33 -2.36 14.66 -1 15 C-0.67 13.68 -0.34 12.36 0 11 C0.99 11 1.98 11 3 11 C2.42655063 13.86724686 2.1385485 14.8614515 0 17 C-5.21324162 17.55460017 -5.21324162 17.55460017 -7.66796875 15.82421875 C-9.4953585 13.32160581 -9.39977723 11.57237596 -9.375 8.5 C-9.38273437 7.5409375 -9.39046875 6.581875 -9.3984375 5.59375 C-9 3 -9 3 -7.6640625 1.1796875 C-5.07427387 -0.65626595 -3.07812588 -0.38476574 0 0 Z " fill="#4B4B4B" transform="translate(318,387)"/>
<path d="M0 0 C2.31 0 4.62 0 7 0 C7 0.33 7 0.66 7 1 C5.35 1 3.7 1 2 1 C2 2.98 2 4.96 2 7 C3.32 7.33 4.64 7.66 6 8 C4.68 8 3.36 8 2 8 C2 9.98 2 11.96 2 14 C3.65 13.67 5.3 13.34 7 13 C7 11.02 7 9.04 7 7 C7.66 6.67 8.32 6.34 9 6 C11.14915785 9.22373677 11.38286803 10.26703674 11 14 C9 16 9 16 6.8359375 16.1953125 C4.55729167 16.13020833 2.27864583 16.06510417 0 16 C0 10.72 0 5.44 0 0 Z " fill="#535353" transform="translate(372,388)"/>
<path d="M0 0 C3.96 0 7.92 0 12 0 C12 0.99 12 1.98 12 3 C10.35 3 8.7 3 7 3 C7 7.62 7 12.24 7 17 C6.01 17 5.02 17 4 17 C4 12.38 4 7.76 4 3 C2.68 3 1.36 3 0 3 C0 2.01 0 1.02 0 0 Z " fill="#505050" transform="translate(193,387)"/>
<path d="M0 0 C2.5 0.125 2.5 0.125 3.5 1.125 C3.66796875 3.12109375 3.66796875 3.12109375 3.6875 5.5625 C3.70167969 6.36558594 3.71585937 7.16867187 3.73046875 7.99609375 C3.5 10.125 3.5 10.125 1.5 12.125 C-2.03571429 11.58928571 -2.03571429 11.58928571 -3.5 10.125 C-3.5979057 8.62761876 -3.62974864 7.12557108 -3.625 5.625 C-3.62757813 4.8103125 -3.63015625 3.995625 -3.6328125 3.15625 C-3.43435342 0.12099356 -3.05615366 0.15280768 0 0 Z " fill="#060606" transform="translate(408.5,389.875)"/>
<path d="M0 0 C0.99 0 1.98 0 3 0 C3 4.62 3 9.24 3 14 C5.64 14 8.28 14 11 14 C11 14.99 11 15.98 11 17 C7.37 17 3.74 17 0 17 C0 11.39 0 5.78 0 0 Z " fill="#464646" transform="translate(281,387)"/>
<path d="M0 0 C1.65 0 3.3 0 5 0 C6 1 6 1 6.1328125 3.03125 C6.13023437 3.8459375 6.12765625 4.660625 6.125 5.5 C6.12757813 6.3146875 6.13015625 7.129375 6.1328125 7.96875 C6 10 6 10 5 11 C3.35 11 1.7 11 0 11 C0 7.37 0 3.74 0 0 Z " fill="#020202" transform="translate(245,390)"/>
<path d="M0 0 C2.64 0 5.28 0 8 0 C8 0.33 8 0.66 8 1 C6.35 1 4.7 1 3 1 C3 2.98 3 4.96 3 7 C4.65 7 6.3 7 8 7 C8 7.66 8 8.32 8 9 C6.35 9 4.7 9 3 9 C3 11.31 3 13.62 3 16 C2.01 16 1.02 16 0 16 C0 10.72 0 5.44 0 0 Z " fill="#4E4E4E" transform="translate(134,388)"/>
<path d="M0 0 C0.33 1.32 0.66 2.64 1 4 C2.65 4 4.3 4 6 4 C6 3.01 6 2.02 6 1 C6.99 1.33 7.98 1.66 9 2 C9.33 4.31 9.66 6.62 10 9 C9.01 8.67 8.02 8.34 7 8 C7 7.34 7 6.68 7 6 C4.69 6 2.38 6 0 6 C0 6.99 0 7.98 0 9 C-0.99 9 -1.98 9 -3 9 C-2.25 2.25 -2.25 2.25 0 0 Z " fill="#4F4F4F" transform="translate(156,395)"/>
<path d="M0 0 C1.32 0 2.64 0 4 0 C4.33 1.65 4.66 3.3 5 5 C4.34 5 3.68 5 3 5 C3.33 7.31 3.66 9.62 4 12 C2.35 12 0.7 12 -1 12 C-0.979375 11.236875 -0.95875 10.47375 -0.9375 9.6875 C-0.87057159 6.89814214 -0.87057159 6.89814214 -2 4 C-1.0625 1.8125 -1.0625 1.8125 0 0 Z " fill="#484848" transform="translate(333,387)"/>
<path d="M0 0 C2.64 0 5.28 0 8 0 C8 0.66 8 1.32 8 2 C6.35 2.33 4.7 2.66 3 3 C2.67 6.96 2.34 10.92 2 15 C3.65 15 5.3 15 7 15 C7 15.66 7 16.32 7 17 C4.69 17 2.38 17 0 17 C0 11.39 0 5.78 0 0 Z " fill="#515151" transform="translate(242,387)"/>
<path d="M0 0 C2.64 0 5.28 0 8 0 C8 0.33 8 0.66 8 1 C6.35 1 4.7 1 3 1 C3 2.98 3 4.96 3 7 C3.99 7.33 4.98 7.66 6 8 C5.01 8 4.02 8 3 8 C3 10.64 3 13.28 3 16 C2.01 16 1.02 16 0 16 C0 10.72 0 5.44 0 0 Z " fill="#505050" transform="translate(174,388)"/>
<path d="M0 0 C0.99 0 1.98 0 3 0 C3 5.61 3 11.22 3 17 C2.01 17 1.02 17 0 17 C0 11.39 0 5.78 0 0 Z " fill="#454545" transform="translate(391,387)"/>
<path d="M0 0 C0.99 0 1.98 0 3 0 C3 5.61 3 11.22 3 17 C2.34 17 1.68 17 1 17 C1 13.04 1 9.08 1 5 C0.01 5 -0.98 5 -2 5 C-1.34 3.35 -0.68 1.7 0 0 Z " fill="#515151" transform="translate(360,387)"/>
<path d="M0 0 C1 3 1 3 -0.29296875 6.1015625 C-0.91365543 7.28179755 -1.54564805 8.45614039 -2.1875 9.625 C-2.79980469 10.79289063 -3.41210938 11.96078125 -4.04296875 13.1640625 C-6 16 -6 16 -8.23828125 16.8984375 C-8.81964844 16.93195313 -9.40101563 16.96546875 -10 17 C-8.40183295 13.61092212 -6.46852262 10.521177 -4.4375 7.375 C-2.08171635 3.76549898 -2.08171635 3.76549898 0 0 Z " fill="#232323" transform="translate(290,168)"/>
<path d="M0 0 C3.96 0 7.92 0 12 0 C12 0.33 12 0.66 12 1 C9.69 1 7.38 1 5 1 C5 6.28 5 11.56 5 17 C4.67 17 4.34 17 4 17 C4 12.38 4 7.76 4 3 C2.68 3 1.36 3 0 3 C0 2.01 0 1.02 0 0 Z " fill="#3C3C3C" transform="translate(193,387)"/>
<path d="M0 0 C0.33 0 0.66 0 1 0 C1.21755666 5.4389165 1.10428384 9.87080814 -1 15 C-1.99 14.67 -2.98 14.34 -4 14 C-3.79503906 13.32453125 -3.59007812 12.6490625 -3.37890625 11.953125 C-3.10949219 11.06109375 -2.84007812 10.1690625 -2.5625 9.25 C-2.16224609 7.92742187 -2.16224609 7.92742187 -1.75390625 6.578125 C-1.11531506 4.39434165 -0.53224167 2.21164502 0 0 Z " fill="#212121" transform="translate(310,81)"/>
<path d="M0 0 C5.47826087 -0.36521739 5.47826087 -0.36521739 7.875 1.3125 C9 3 9 3 9 6 C8.01 6 7.02 6 6 6 C5.67 5.34 5.34 4.68 5 4 C4.01 3.7834375 4.01 3.7834375 3 3.5625 C2.34 3.376875 1.68 3.19125 1 3 C0.67 2.01 0.34 1.02 0 0 Z " fill="#454545" transform="translate(312,387)"/>
<path d="M0 0 C5.625 -0.25 5.625 -0.25 9 2 C9 3.32 9 4.64 9 6 C8.01 5.67 7.02 5.34 6 5 C6 4.34 6 3.68 6 3 C4.35 3 2.7 3 1 3 C0.67 2.01 0.34 1.02 0 0 Z " fill="#454545" transform="translate(88,387)"/>
<path d="M0 0 C1.65 0 3.3 0 5 0 C5.5625 1.9375 5.5625 1.9375 6 4 C5 5 5 5 2.4375 5.0625 C1.2309375 5.0315625 1.2309375 5.0315625 0 5 C0 3.35 0 1.7 0 0 Z " fill="#040404" transform="translate(137,390)"/>
<path d="M0 0 C1.5 1.1875 1.5 1.1875 3 3 C3.1875 5.6875 3.1875 5.6875 3 8 C1.02 8.99 1.02 8.99 -1 10 C-1.02689216 8.52093108 -1.04634621 7.04172517 -1.0625 5.5625 C-1.07410156 4.73878906 -1.08570313 3.91507812 -1.09765625 3.06640625 C-1 1 -1 1 0 0 Z " fill="#4D4D4D" transform="translate(380,394)"/>
<path d="M0 0 C0.66 0.33 1.32 0.66 2 1 C2.40729228 3.32156597 2.74438677 5.6568787 3 8 C1.35 8 -0.3 8 -2 8 C-1.34 5.36 -0.68 2.72 0 0 Z " fill="#0E0E0E" transform="translate(334,391)"/>
<path d="M0 0 C2.5654594 2.5654594 2.54046087 4.47686668 3 8 C1.35 8 -0.3 8 -2 8 C-1.125 2.25 -1.125 2.25 0 0 Z " fill="#0D0D0D" transform="translate(159,391)"/>
<path d="M0 0 C1.98 0 3.96 0 6 0 C6 1.32 6 2.64 6 4 C4.02 4 2.04 4 0 4 C0 2.68 0 1.36 0 0 Z " fill="#060606" transform="translate(374,390)"/>
<path d="M0 0 C0.66 0 1.32 0 2 0 C1.67 1.65 1.34 3.3 1 5 C2.32 5.33 3.64 5.66 5 6 C5 6.66 5 7.32 5 8 C0.125 7.125 0.125 7.125 -1 6 C-1.125 3.5 -1.125 3.5 -1 1 C-0.67 0.67 -0.34 0.34 0 0 Z " fill="#505050" transform="translate(87,388)"/>
<path d="M0 0 C1.65 0 3.3 0 5 0 C5.33 1.32 5.66 2.64 6 4 C4.02 4 2.04 4 0 4 C0 2.68 0 1.36 0 0 Z " fill="#010101" transform="translate(177,390)"/>
<path d="M0 0 C1.65 0 3.3 0 5 0 C5 1.32 5 2.64 5 4 C3.35 4 1.7 4 0 4 C0 2.68 0 1.36 0 0 Z " fill="#000000" transform="translate(375,397)"/>
<path d="M0 0 C0.99 0 1.98 0 3 0 C3.66 1.98 4.32 3.96 5 6 C4.01 6 3.02 6 2 6 C1.34 4.02 0.68 2.04 0 0 Z " fill="#4B4B4B" transform="translate(181,398)"/>
</svg>
